<svg width="18" height="20" viewBox="0 0 18 20" fill="none" xmlns="http://www.w3.org/2000/svg">
<path d="M16.3071 10.5835L15.34 10.0001L16.3079 9.41682C16.98 9.02774 17.5004 8.43246 17.7876 7.72435C17.9674 7.25614 18.0344 6.754 17.9835 6.2566C17.9325 5.7592 17.765 5.27983 17.4938 4.8554C17.2227 4.43098 16.855 4.07283 16.4193 3.80855C15.9836 3.54428 15.4914 3.38092 14.9806 3.33108C14.2012 3.26901 13.4228 3.4607 12.7675 3.87607L12.4243 4.08357V3.47691C12.4388 2.63088 12.1316 1.80951 11.5618 1.17068C10.9919 0.531846 10.1997 0.120647 9.33743 0.0161275C8.86181 -0.0295956 8.38163 0.0221648 7.9278 0.168077C7.47397 0.313989 7.05655 0.550819 6.7024 0.863321C6.34826 1.17582 6.06524 1.55707 5.87157 1.98252C5.67789 2.40798 5.57786 2.8682 5.5779 3.33358V4.08357L5.23558 3.87524C4.58038 3.45869 3.80155 3.26609 3.02163 3.32775C2.51075 3.37715 2.01835 3.54013 1.58238 3.80412C1.14641 4.06811 0.778516 4.42605 0.507059 4.85036C0.235602 5.27467 0.0678328 5.754 0.0166835 6.25142C-0.0344658 6.74884 0.0323713 7.25105 0.212043 7.71935C0.499281 8.42769 1.02007 9.02303 1.69257 9.41182L2.66219 10.0001L1.69429 10.5835C1.02223 10.9726 0.501796 11.5678 0.21461 12.2759C0.0345872 12.7445 -0.0324443 13.2471 0.0186906 13.7449C0.0698255 14.2427 0.237759 14.7224 0.509526 15.147C0.781293 15.5715 1.14962 15.9296 1.58608 16.1936C2.02254 16.4575 2.51545 16.6202 3.02676 16.6692C3.80438 16.7311 4.58113 16.5403 5.23558 16.1267L5.5779 15.9167V16.6667C5.5779 17.5508 5.93856 18.3986 6.58053 19.0237C7.22251 19.6488 8.09321 20 9.0011 20C9.90899 20 10.7797 19.6488 11.4217 19.0237C12.0636 18.3986 12.4243 17.5508 12.4243 16.6667V15.9167L12.7666 16.1259C13.4207 16.5398 14.1971 16.7311 14.9746 16.67C15.4857 16.6208 15.9784 16.4579 16.4147 16.1939C16.8509 15.9298 17.2191 15.5717 17.4906 15.1472C17.7622 14.7227 17.93 14.2431 17.9811 13.7454C18.0321 13.2477 17.965 12.7452 17.785 12.2768C17.4983 11.5687 16.9785 10.9731 16.3071 10.5835ZM16.0409 14.2651C15.8109 14.6244 15.4438 14.8801 15.0203 14.9759C14.5968 15.0717 14.1515 14.9997 13.7824 14.7759L12.0204 13.7076C11.8907 13.6291 11.7417 13.5858 11.5891 13.5822C11.4364 13.5786 11.2855 13.6149 11.1521 13.6873C11.0187 13.7596 10.9076 13.8654 10.8303 13.9937C10.753 14.122 10.7124 14.268 10.7127 14.4167V16.6667C10.7127 17.1087 10.5324 17.5327 10.2114 17.8452C9.89039 18.1578 9.45504 18.3334 9.0011 18.3334C8.54715 18.3334 8.1118 18.1578 7.79081 17.8452C7.46983 17.5327 7.2895 17.1087 7.2895 16.6667V14.4167C7.28946 14.2682 7.24864 14.1223 7.17125 13.9943C7.09386 13.8662 6.98273 13.7607 6.84935 13.6885C6.71598 13.6164 6.56523 13.5802 6.4127 13.5839C6.26017 13.5875 6.11141 13.6308 5.98184 13.7093L4.21975 14.7792C4.03701 14.89 3.83365 14.9647 3.62127 14.999C3.4089 15.0333 3.19168 15.0265 2.982 14.979C2.77232 14.9315 2.5743 14.8443 2.39924 14.7223C2.22418 14.6003 2.07551 14.4459 1.96172 14.268C1.84793 14.0901 1.77125 13.892 1.73605 13.6852C1.70086 13.4785 1.70783 13.2669 1.75659 13.0628C1.80534 12.8586 1.89492 12.6658 2.0202 12.4953C2.14548 12.3248 2.30402 12.1801 2.48676 12.0693L4.73323 10.7076C4.85707 10.6329 4.95927 10.5286 5.03014 10.4047C5.10101 10.2807 5.13821 10.1412 5.13821 9.99931C5.13821 9.85744 5.10101 9.71792 5.03014 9.59397C4.95927 9.47001 4.85707 9.36573 4.73323 9.29099L2.48676 7.93018C2.1177 7.7064 1.85505 7.34904 1.75659 6.9367C1.65812 6.52436 1.73191 6.09082 1.96172 5.73146C2.19153 5.3721 2.55854 5.11635 2.982 5.02047C3.40546 4.92459 3.85069 4.99644 4.21975 5.22022L5.98184 6.28854C6.11123 6.36687 6.25975 6.41015 6.41206 6.4139C6.56437 6.41765 6.71494 6.38174 6.84824 6.30988C6.98153 6.23802 7.0927 6.13281 7.17027 6.00513C7.24785 5.87744 7.28901 5.7319 7.2895 5.58355V3.42274C7.28026 3.01704 7.41785 2.6211 7.67819 2.30422C7.93853 1.98734 8.30504 1.76971 8.71355 1.68944C8.95922 1.64867 9.21106 1.66063 9.45149 1.72449C9.69192 1.78834 9.91512 1.90255 10.1055 2.05913C10.2959 2.21571 10.4489 2.41088 10.5538 2.63101C10.6586 2.85114 10.7129 3.09091 10.7127 3.33358V5.58355C10.7129 5.73204 10.7538 5.87779 10.8313 6.00572C10.9087 6.13364 11.0199 6.23908 11.1532 6.31114C11.2866 6.3832 11.4373 6.41926 11.5897 6.41557C11.7422 6.41189 11.8908 6.36861 12.0204 6.2902L13.7824 5.22272C13.9652 5.11192 14.1685 5.03725 14.3809 5.00297C14.5933 4.9687 14.8105 4.9755 15.0202 5.02297C15.2299 5.07044 15.4279 5.15767 15.603 5.27966C15.778 5.40165 15.9267 5.55602 16.0405 5.73396C16.1543 5.9119 16.2309 6.10992 16.2661 6.31671C16.3013 6.52351 16.2944 6.73503 16.2456 6.9392C16.1969 7.14337 16.1073 7.33619 15.982 7.50665C15.8567 7.67711 15.6982 7.82188 15.5154 7.93268L13.269 9.29432C13.1451 9.36906 13.0429 9.47334 12.9721 9.5973C12.9012 9.72126 12.864 9.86078 12.864 10.0026C12.864 10.1445 12.9012 10.284 12.9721 10.408C13.0429 10.532 13.1451 10.6362 13.269 10.711L15.5154 12.0726C15.6983 12.1833 15.8569 12.3279 15.9823 12.4983C16.1077 12.6687 16.1973 12.8615 16.2461 13.0657C16.295 13.2699 16.3019 13.4814 16.2667 13.6882C16.2315 13.895 16.1548 14.093 16.0409 14.2709V14.2651Z" fill="#E2E8F0"/>
</svg>
