<svg width="16" height="16" viewBox="0 0 16 16" fill="none" xmlns="http://www.w3.org/2000/svg">
<path d="M8 16C9.58225 16 11.129 15.5308 12.4446 14.6518C13.7602 13.7727 14.7855 12.5233 15.391 11.0615C15.9965 9.59966 16.155 7.99113 15.8463 6.43928C15.5376 4.88743 14.7757 3.46197 13.6569 2.34315C12.538 1.22433 11.1126 0.462403 9.56072 0.153721C8.00887 -0.15496 6.40034 0.00346629 4.93853 0.608967C3.47672 1.21447 2.22729 2.23985 1.34824 3.55544C0.469192 4.87104 0 6.41775 0 8C0.00211791 10.1211 0.845653 12.1547 2.34549 13.6545C3.84532 15.1544 5.87892 15.9979 8 16ZM8 2.66667C9.05483 2.66667 10.086 2.97947 10.963 3.5655C11.8401 4.15153 12.5237 4.98449 12.9274 5.95903C13.331 6.93357 13.4366 8.00592 13.2309 9.04049C13.0251 10.0751 12.5171 11.0254 11.7712 11.7712C11.0254 12.5171 10.075 13.0251 9.04048 13.2309C8.00592 13.4366 6.93356 13.331 5.95902 12.9274C4.98448 12.5237 4.15153 11.8401 3.5655 10.963C2.97946 10.086 2.66667 9.05484 2.66667 8C2.66667 6.58552 3.22857 5.22896 4.22876 4.22877C5.22896 3.22857 6.58551 2.66667 8 2.66667Z" fill="#1E293B"/>
</svg>
