<svg width="13" height="16" viewBox="0 0 13 16" fill="none" xmlns="http://www.w3.org/2000/svg">
<path d="M9.75 0H3.25C2.38836 0.00105857 1.56231 0.352588 0.953043 0.97748C0.343773 1.60237 0.00103211 2.4496 0 3.33333V13.3333C0 14.0406 0.273928 14.7189 0.761522 15.219C1.24912 15.719 1.91044 16 2.6 16H9.75C10.6116 15.9989 11.4377 15.6474 12.047 15.0225C12.6562 14.3976 12.999 13.5504 13 12.6667V3.33333C12.999 2.4496 12.6562 1.60237 12.047 0.97748C11.4377 0.352588 10.6116 0.00105857 9.75 0ZM11.7 3.33333V10.6667H3.9V1.33333H9.75C10.2672 1.33333 10.7632 1.54405 11.1289 1.91912C11.4946 2.29419 11.7 2.8029 11.7 3.33333ZM2.6 1.448V10.6667C2.14346 10.6663 1.69494 10.7898 1.3 11.0247V3.33333C1.30006 2.91979 1.4251 2.51644 1.65791 2.1788C1.89072 1.84116 2.21986 1.58585 2.6 1.448ZM9.75 14.6667H2.6C2.25522 14.6667 1.92456 14.5262 1.68076 14.2761C1.43696 14.0261 1.3 13.687 1.3 13.3333C1.3 12.9797 1.43696 12.6406 1.68076 12.3905C1.92456 12.1405 2.25522 12 2.6 12H11.7V12.6667C11.7 13.1971 11.4946 13.7058 11.1289 14.0809C10.7632 14.456 10.2672 14.6667 9.75 14.6667Z" fill="#E2E8F0"/>
</svg>
