<svg width="24" height="14" viewBox="0 0 24 14" fill="none" xmlns="http://www.w3.org/2000/svg">
<path d="M12 0C8.81849 0.00352914 5.76829 1.26894 3.51862 3.51862C1.26894 5.76829 0.00352914 8.81848 0 12C0 12.3536 0.140476 12.6928 0.390524 12.9428C0.640573 13.1929 0.979711 13.3333 1.33333 13.3333C1.68696 13.3333 2.02609 13.1929 2.27614 12.9428C2.52619 12.6928 2.66667 12.3536 2.66667 12C2.66667 9.52465 3.65 7.15068 5.40034 5.40034C7.15068 3.65 9.52465 2.66667 12 2.66667C14.4754 2.66667 16.8493 3.65 18.5997 5.40034C20.35 7.15068 21.3333 9.52465 21.3333 12C21.3333 12.3536 21.4738 12.6928 21.7239 12.9428C21.9739 13.1929 22.313 13.3333 22.6667 13.3333C23.0203 13.3333 23.3594 13.1929 23.6095 12.9428C23.8595 12.6928 24 12.3536 24 12C23.9965 8.81848 22.7311 5.76829 20.4814 3.51862C18.2317 1.26894 15.1815 0.00352914 12 0Z" fill="#1E293B"/>
</svg>
